<?xml version="1.0" encoding="UTF-8"?>
<!DOCTYPE svg PUBLIC "-//W3C//DTD SVG 1.1//EN" "http://www.w3.org/Graphics/SVG/1.1/DTD/svg11.dtd">
<!-- Creator: CorelDRAW -->
<svg xmlns="http://www.w3.org/2000/svg" xml:space="preserve" width="23.766mm" height="20.0915mm" version="1.1" style="shape-rendering:geometricPrecision; text-rendering:geometricPrecision; image-rendering:optimizeQuality; fill-rule:evenodd; clip-rule:evenodd"
viewBox="0 0 2362.43 1997.17"
 xmlns:xlink="http://www.w3.org/1999/xlink"
 xmlns:xodm="http://www.corel.com/coreldraw/odm/2003">
 <defs>
  <style type="text/css">
   <![CDATA[
    .fil0 {fill:white}
   ]]>
  </style>
 </defs>
 <g id="Layer_x0020_1">
  <metadata id="CorelCorpID_0Corel-Layer"/>
  <path class="fil0" d="M969.73 851.76l-46.28 -88.67c533.45,-395.77 1216.81,-650.93 1216.81,-650.93 0,0 -374.74,6.49 -1291.77,484.42l-81.56 -147.06 -120.62 287.02c-523.84,355.26 -624.52,570.42 -624.52,570.42 425.77,-272.88 737.36,179.45 519.04,515.88l255.07 -157.45 249.32 0 77.39 165.88 389.74 165.88 -326.6 -701.14c0,0 317.08,-370.18 451.91,-474.54 0,0 -354.9,142.73 -526.85,304.93l-39.66 -75.69c0,0 94.79,-164.36 1055.89,-782.86 0,0 -537.86,123.26 -1157.31,583.9zm-937.89 1127.16l60.06 -109.93c24.5,19.04 59.69,36.26 119.48,49.21l-179.54 60.72zm1723.66 -1331.55c44.83,0 81.17,36.34 81.17,81.16 0,44.83 -36.34,81.17 -81.17,81.17 -44.82,0 -81.16,-36.34 -81.16,-81.17 0,-44.82 36.34,-81.16 81.16,-81.16zm522.19 -647.37c46.8,0 84.74,37.94 84.74,84.74 0,46.8 -37.94,84.74 -84.74,84.74 -46.8,0 -84.74,-37.94 -84.74,-84.74 0,-46.8 37.94,-84.74 84.74,-84.74zm-2029.94 1332.63c136.84,0 247.75,110.91 247.75,247.74 0,136.84 -110.91,247.75 -247.75,247.75 -136.83,0 -247.74,-110.91 -247.74,-247.75 0,-136.83 110.91,-247.74 247.74,-247.74zm515.26 -214.12l60.76 132.55 60.75 132.56 -121.5 0 -121.5 0 60.75 -132.56 60.76 -132.55z"/>
 </g>
</svg>
