<?xml version="1.0" encoding="UTF-8"?>
<!DOCTYPE svg PUBLIC "-//W3C//DTD SVG 1.1//EN" "http://www.w3.org/Graphics/SVG/1.1/DTD/svg11.dtd">
<!-- Creator: CorelDRAW -->
<svg xmlns="http://www.w3.org/2000/svg" xml:space="preserve" width="23.766mm" height="20.0915mm" version="1.1" style="shape-rendering:geometricPrecision; text-rendering:geometricPrecision; image-rendering:optimizeQuality; fill-rule:evenodd; clip-rule:evenodd"
viewBox="0 0 150.8 127.48"
 xmlns:xlink="http://www.w3.org/1999/xlink"
 xmlns:xodm="http://www.corel.com/coreldraw/odm/2003">
 <defs>
  <style type="text/css">
   <![CDATA[
    .fil0 {fill:#7C3AED}
   ]]>
  </style>
 </defs>
 <g id="Layer_x0020_1">
  <metadata id="CorelCorpID_0Corel-Layer"/>
  <path class="fil0" d="M61.9 54.37l-2.95 -5.66c34.05,-25.26 77.67,-41.55 77.67,-41.55 0,0 -23.92,0.41 -82.46,30.92l-5.21 -9.39 -7.7 18.32c-33.44,22.68 -39.86,36.41 -39.86,36.41 27.18,-17.42 47.07,11.45 33.13,32.93l16.28 -10.05 15.91 0 4.94 10.59 24.88 10.59 -20.85 -44.76c0,0 20.24,-23.63 28.85,-30.29 0,0 -22.65,9.11 -33.63,19.46l-2.53 -4.83c0,0 6.05,-10.49 67.4,-49.97 0,0 -34.33,7.87 -73.87,37.27zm-59.87 71.95l3.83 -7.02c1.56,1.22 3.81,2.31 7.63,3.14l-11.46 3.88zm110.02 -85c2.86,0 5.18,2.32 5.18,5.18 0,2.86 -2.32,5.18 -5.18,5.18 -2.86,0 -5.18,-2.32 -5.18,-5.18 0,-2.86 2.32,-5.18 5.18,-5.18zm33.33 -41.32c2.99,0 5.41,2.42 5.41,5.41 0,2.99 -2.42,5.41 -5.41,5.41 -2.99,0 -5.41,-2.42 -5.41,-5.41 0,-2.99 2.42,-5.41 5.41,-5.41zm-129.58 85.06c8.73,0 15.81,7.08 15.81,15.81 0,8.73 -7.08,15.81 -15.81,15.81 -8.73,0 -15.81,-7.08 -15.81,-15.81 0,-8.73 7.08,-15.81 15.81,-15.81zm32.89 -13.67l3.88 8.46 3.88 8.46 -7.76 0 -7.76 0 3.88 -8.46 3.88 -8.46z"/>
 </g>
</svg>
